<svg width="32" height="32" viewBox="0 0 32 32" fill="none" xmlns="http://www.w3.org/2000/svg">
<path d="M9.99984 28.6666C7.93866 28.658 6.12418 27.3059 5.5265 25.3333H2.6665V22.6666H5.5265C6.21304 20.3639 8.53589 18.9589 10.8941 19.42C13.2523 19.8811 14.8749 22.0575 14.6436 24.4492C14.4123 26.8409 12.4027 28.666 9.99984 28.6666ZM9.99984 22C8.89527 22 7.99984 22.8954 7.99984 24C7.99984 25.1045 8.89527 26 9.99984 26C11.1044 26 11.9998 25.1045 11.9998 24C11.9998 22.8954 11.1044 22 9.99984 22ZM29.3332 25.3333H15.9998V22.6666H29.3332V25.3333ZM21.9998 20.6666C19.597 20.666 17.5873 18.8409 17.356 16.4492C17.1247 14.0575 18.7474 11.8811 21.1056 11.42C23.4638 10.9589 25.7866 12.3639 26.4732 14.6666H29.3332V17.3333H26.4732C25.8755 19.3059 24.061 20.658 21.9998 20.6666ZM21.9998 14C20.8953 14 19.9998 14.8954 19.9998 16C19.9998 17.1045 20.8953 18 21.9998 18C23.1044 18 23.9998 17.1045 23.9998 16C23.9998 14.8954 23.1044 14 21.9998 14ZM15.9998 17.3333H2.6665V14.6666H15.9998V17.3333ZM12.6665 12.6666C10.2636 12.666 8.25402 10.8409 8.02271 8.44918C7.7914 6.05748 9.41402 3.88108 11.7722 3.42C14.1305 2.95893 16.4533 4.36392 17.1398 6.66662H29.3332V9.33329H17.1398C16.5418 11.3057 14.7275 12.6576 12.6665 12.6666ZM12.6665 5.99995C11.5758 6.00143 10.6874 6.87652 10.6695 7.96707C10.6516 9.05762 11.5107 9.96145 12.6008 9.99878C13.6908 10.0361 14.6098 9.19318 14.6665 8.10395V8.49062V7.99995C14.6665 6.89538 13.7711 5.99995 12.6665 5.99995ZM6.6665 9.33329H2.6665V6.66662H6.6665V9.33329Z" fill="white"/>
</svg>
